<mxfile host="app.diagrams.net" modified="2020-12-05T08:39:21.192Z" agent="5.0 (Windows NT 10.0; Win64; x64) AppleWebKit/537.36 (KHTML, like Gecko) Chrome/87.0.4280.88 Safari/537.36" etag="x6TtpWgAkq_NLZIsOTZw" version="13.10.9" type="github">
  <diagram id="9q2n9j8SPXFkokgnq7Gc" name="Page-1">
    <mxGraphModel dx="2286" dy="1218" grid="0" gridSize="10" guides="1" tooltips="1" connect="1" arrows="1" fold="1" page="0" pageScale="1" pageWidth="850" pageHeight="1100" math="0" shadow="0">
      <root>
        <mxCell id="0" />
        <mxCell id="1" parent="0" />
        <mxCell id="KfApEskvTf-eCX0YuqyP-1" value="0" style="rounded=0;whiteSpace=wrap;html=1;fontSize=26;strokeColor=none;" vertex="1" parent="1">
          <mxGeometry x="-62" y="-154" width="120" height="60" as="geometry" />
        </mxCell>
        <mxCell id="KfApEskvTf-eCX0YuqyP-2" value="0" style="rounded=0;whiteSpace=wrap;html=1;fontSize=26;strokeColor=none;" vertex="1" parent="1">
          <mxGeometry x="-74" y="-159" width="120" height="60" as="geometry" />
        </mxCell>
        <mxCell id="KfApEskvTf-eCX0YuqyP-3" value="0" style="rounded=0;whiteSpace=wrap;html=1;fontSize=26;strokeColor=none;" vertex="1" parent="1">
          <mxGeometry x="-71" y="-159" width="120" height="60" as="geometry" />
        </mxCell>
        <mxCell id="KfApEskvTf-eCX0YuqyP-4" value="0" style="rounded=0;whiteSpace=wrap;html=1;fontSize=26;strokeColor=none;" vertex="1" parent="1">
          <mxGeometry x="-90" y="-159" width="120" height="60" as="geometry" />
        </mxCell>
        <mxCell id="KfApEskvTf-eCX0YuqyP-5" value="0" style="rounded=0;whiteSpace=wrap;html=1;fontSize=26;strokeColor=none;" vertex="1" parent="1">
          <mxGeometry x="-99" y="-152" width="104" height="60" as="geometry" />
        </mxCell>
        <mxCell id="KfApEskvTf-eCX0YuqyP-6" value="1" style="rounded=0;whiteSpace=wrap;html=1;fontSize=26;strokeColor=none;" vertex="1" parent="1">
          <mxGeometry x="9" y="-152" width="104" height="60" as="geometry" />
        </mxCell>
        <mxCell id="KfApEskvTf-eCX0YuqyP-7" value="2" style="rounded=0;whiteSpace=wrap;html=1;fontSize=26;strokeColor=none;" vertex="1" parent="1">
          <mxGeometry x="117" y="-152" width="104" height="60" as="geometry" />
        </mxCell>
        <mxCell id="KfApEskvTf-eCX0YuqyP-8" value="3" style="rounded=0;whiteSpace=wrap;html=1;fontSize=26;strokeColor=none;" vertex="1" parent="1">
          <mxGeometry x="228" y="-152" width="104" height="60" as="geometry" />
        </mxCell>
        <mxCell id="KfApEskvTf-eCX0YuqyP-9" value="4" style="rounded=0;whiteSpace=wrap;html=1;fontSize=26;strokeColor=none;" vertex="1" parent="1">
          <mxGeometry x="337" y="-152" width="104" height="60" as="geometry" />
        </mxCell>
        <mxCell id="KfApEskvTf-eCX0YuqyP-10" value="5" style="rounded=0;whiteSpace=wrap;html=1;fontSize=26;strokeColor=none;" vertex="1" parent="1">
          <mxGeometry x="447" y="-152" width="104" height="60" as="geometry" />
        </mxCell>
        <mxCell id="KfApEskvTf-eCX0YuqyP-11" value="6" style="rounded=0;whiteSpace=wrap;html=1;fontSize=26;strokeColor=none;" vertex="1" parent="1">
          <mxGeometry x="557" y="-152" width="104" height="60" as="geometry" />
        </mxCell>
        <mxCell id="KfApEskvTf-eCX0YuqyP-12" value="7" style="rounded=0;whiteSpace=wrap;html=1;fontSize=26;strokeColor=none;" vertex="1" parent="1">
          <mxGeometry x="667" y="-152" width="104" height="60" as="geometry" />
        </mxCell>
        <mxCell id="KfApEskvTf-eCX0YuqyP-13" value="8" style="rounded=0;whiteSpace=wrap;html=1;fontSize=26;strokeColor=none;" vertex="1" parent="1">
          <mxGeometry x="777" y="-152" width="104" height="60" as="geometry" />
        </mxCell>
        <mxCell id="KfApEskvTf-eCX0YuqyP-14" value="9" style="rounded=0;whiteSpace=wrap;html=1;fontSize=26;strokeColor=none;" vertex="1" parent="1">
          <mxGeometry x="887" y="-152" width="104" height="60" as="geometry" />
        </mxCell>
        <mxCell id="KfApEskvTf-eCX0YuqyP-21" value="||||" style="rounded=0;whiteSpace=wrap;html=1;fontSize=26;strokeColor=none;" vertex="1" parent="1">
          <mxGeometry x="340" y="-219" width="104" height="60" as="geometry" />
        </mxCell>
        <mxCell id="KfApEskvTf-eCX0YuqyP-22" value="|||||" style="rounded=0;whiteSpace=wrap;html=1;fontSize=26;strokeColor=none;" vertex="1" parent="1">
          <mxGeometry x="447" y="-217" width="104" height="60" as="geometry" />
        </mxCell>
        <mxCell id="KfApEskvTf-eCX0YuqyP-23" value="|||||&lt;br&gt;|" style="rounded=0;whiteSpace=wrap;html=1;fontSize=26;strokeColor=none;" vertex="1" parent="1">
          <mxGeometry x="572" y="-227" width="78" height="60" as="geometry" />
        </mxCell>
        <mxCell id="KfApEskvTf-eCX0YuqyP-28" value="|" style="rounded=0;whiteSpace=wrap;html=1;fontSize=26;strokeColor=none;" vertex="1" parent="1">
          <mxGeometry x="9" y="-219" width="104" height="60" as="geometry" />
        </mxCell>
        <mxCell id="KfApEskvTf-eCX0YuqyP-29" value="||" style="rounded=0;whiteSpace=wrap;html=1;fontSize=26;strokeColor=none;" vertex="1" parent="1">
          <mxGeometry x="117" y="-219" width="104" height="60" as="geometry" />
        </mxCell>
        <mxCell id="KfApEskvTf-eCX0YuqyP-30" value="|||" style="rounded=0;whiteSpace=wrap;html=1;fontSize=26;strokeColor=none;" vertex="1" parent="1">
          <mxGeometry x="231" y="-219" width="104" height="60" as="geometry" />
        </mxCell>
        <mxCell id="KfApEskvTf-eCX0YuqyP-36" value="|||||&lt;br&gt;||" style="rounded=0;whiteSpace=wrap;html=1;fontSize=26;strokeColor=none;" vertex="1" parent="1">
          <mxGeometry x="687" y="-229" width="78" height="60" as="geometry" />
        </mxCell>
        <mxCell id="KfApEskvTf-eCX0YuqyP-37" value="|||||&lt;br&gt;|||" style="rounded=0;whiteSpace=wrap;html=1;fontSize=26;strokeColor=none;" vertex="1" parent="1">
          <mxGeometry x="790" y="-227" width="78" height="60" as="geometry" />
        </mxCell>
        <mxCell id="KfApEskvTf-eCX0YuqyP-38" value="|||||&lt;br&gt;||||" style="rounded=0;whiteSpace=wrap;html=1;fontSize=26;strokeColor=none;" vertex="1" parent="1">
          <mxGeometry x="900" y="-225" width="78" height="60" as="geometry" />
        </mxCell>
      </root>
    </mxGraphModel>
  </diagram>
</mxfile>
